<?xml version="1.0" encoding="UTF-8" standalone="no"?>
<!-- Created with Inkscape (http://www.inkscape.org/) -->

<svg
   width="297mm"
   height="210mm"
   viewBox="0 0 297 210"
   version="1.1"
   id="svg1"
   xml:space="preserve"
   inkscape:version="1.4.2 (ebf0e940d0, 2025-05-08)"
   sodipodi:docname="OSG_Logo.svg"
   xmlns:inkscape="http://www.inkscape.org/namespaces/inkscape"
   xmlns:sodipodi="http://sodipodi.sourceforge.net/DTD/sodipodi-0.dtd"
   xmlns="http://www.w3.org/2000/svg"
   xmlns:svg="http://www.w3.org/2000/svg"><sodipodi:namedview
     id="namedview1"
     pagecolor="#ffffff"
     bordercolor="#000000"
     borderopacity="0.25"
     inkscape:showpageshadow="2"
     inkscape:pageopacity="0.0"
     inkscape:pagecheckerboard="0"
     inkscape:deskcolor="#d1d1d1"
     inkscape:document-units="mm"
     showguides="true"
     inkscape:zoom="0.60030453"
     inkscape:cx="542.22479"
     inkscape:cy="381.47305"
     inkscape:window-width="1920"
     inkscape:window-height="1029"
     inkscape:window-x="0"
     inkscape:window-y="0"
     inkscape:window-maximized="1"
     inkscape:current-layer="layer1" /><defs
     id="defs1"><rect
       x="176.59151"
       y="99.93163"
       width="594.50411"
       height="103.84579"
       id="rect1" /><rect
       x="176.59151"
       y="99.931633"
       width="594.50409"
       height="103.84579"
       id="rect1-3" /><rect
       x="176.59151"
       y="99.931633"
       width="416.80367"
       height="103.84579"
       id="rect1-3-1" /></defs><g
     inkscape:label="Layer 1"
     inkscape:groupmode="layer"
     id="layer1"><path
       id="path1-1"
       style="stroke-width:3.89722;fill:#4d4d4d"
       d="m 128.97436,22.595566 c 6.19934,6.452353 8.4247,15.752738 5.81736,24.312315 -2.60734,8.559578 -9.63967,15.039955 -18.38338,16.940503 -8.74371,1.900566 -15.77984,-0.329793 -21.705113,-7.034703 0,0 -0.777647,-2.282688 1.481441,-2.943 2.258385,-0.6601 4.214292,1.337949 5.997972,1.095667 2.00851,-0.272841 2.33209,-2.382067 7.19693,-2.293848 2.23208,0.04057 2.24857,-2.798944 4.50899,-4.176256 3.61928,-2.205274 4.07545,-0.719496 5.75406,-4.290444 1.68635,-3.587315 0.29913,-4.639457 2.32903,-9.024639 1.62039,-3.500532 -0.32908,-3.027569 1.6011,-6.247236 1.03672,-1.7293 1.65122,-1.848413 2.89794,-2.406087 1.21283,-0.54251 2.19873,-3.559575 2.50367,-3.932272 z"
       sodipodi:nodetypes="csscssssssssc" /><path
       style="fill:#ffffff;fill-opacity:1;stroke:none;stroke-width:0.646853;stroke-dasharray:none;stroke-opacity:1"
       id="path2-3-27"
       sodipodi:type="arc"
       sodipodi:cx="157.05946"
       sodipodi:cy="-112.56245"
       sodipodi:rx="2.2330081"
       sodipodi:ry="0.94478816"
       sodipodi:start="5.5177844"
       sodipodi:end="5.4875155"
       sodipodi:open="true"
       sodipodi:arc-type="arc"
       d="m 158.6697,-113.21702 a 2.2330081,0.94478816 0 0 1 -0.051,1.33089 2.2330081,0.94478816 0 0 1 -3.14586,-0.0115 2.2330081,0.94478816 0 0 1 0.003,-1.33106 2.2330081,0.94478816 0 0 1 3.14592,-0.009"
       transform="matrix(0.5529027,0.83324584,-0.38436637,0.92318065,0,0)" /><path
       id="path1-1-3"
       style="stroke-width:3.89722;fill:#4d4d4d"
       d="m 143.03533,76.314396 c 6.19934,6.452353 8.4247,15.752738 5.81736,24.312314 -2.60734,8.55958 -9.63967,15.03996 -18.38338,16.9405 -8.74371,1.90057 -15.77984,-0.32979 -21.70511,-7.0347 0,0 -0.77765,-2.28269 1.48144,-2.943 2.25838,-0.6601 4.21429,1.33795 5.99797,1.09567 2.00851,-0.27284 2.33209,-2.38207 7.19693,-2.29385 2.23208,0.0406 2.24857,-2.79894 4.50899,-4.17626 3.61928,-2.20527 4.07545,-0.71949 5.75406,-4.29044 1.68635,-3.587315 0.29913,-4.639457 2.32903,-9.024639 1.62039,-3.500532 -0.32908,-3.027569 1.6011,-6.247236 1.03672,-1.7293 1.65122,-1.848413 2.89794,-2.406087 1.21283,-0.54251 2.19873,-3.559575 2.50367,-3.932272 z"
       sodipodi:nodetypes="csscssssssssc" /><path
       style="fill:#ffffff;fill-opacity:1;stroke:none;stroke-width:0.646853;stroke-dasharray:none;stroke-opacity:1"
       id="path2-3-27-9"
       sodipodi:type="arc"
       sodipodi:cx="197.54158"
       sodipodi:cy="-90.912003"
       sodipodi:rx="2.2330081"
       sodipodi:ry="0.94478816"
       sodipodi:start="5.5177844"
       sodipodi:end="5.4875155"
       sodipodi:open="true"
       sodipodi:arc-type="arc"
       d="m 199.15181,-91.566577 a 2.2330081,0.94478816 0 0 1 -0.051,1.330893 2.2330081,0.94478816 0 0 1 -3.14586,-0.01151 2.2330081,0.94478816 0 0 1 0.003,-1.331067 2.2330081,0.94478816 0 0 1 3.14591,-0.0086"
       transform="matrix(0.5529027,0.83324584,-0.38436637,0.92318065,0,0)" /><path
       style="fill:#1a1a1a;fill-opacity:1;stroke:none;stroke-width:3.89721;stroke-dasharray:none;stroke-opacity:1"
       id="path8"
       sodipodi:type="arc"
       sodipodi:cx="254.57845"
       sodipodi:cy="172.46182"
       sodipodi:rx="16.201738"
       sodipodi:ry="8.3679314"
       sodipodi:start="5.5177844"
       sodipodi:end="5.4875155"
       sodipodi:open="true"
       sodipodi:arc-type="arc"
       d="m 266.26159,166.6643 a 16.201738,8.3679314 0 0 1 -0.37007,11.78763 16.201738,8.3679314 0 0 1 -22.82501,-0.10193 16.201738,8.3679314 0 0 1 0.0246,-11.78917 16.201738,8.3679314 0 0 1 22.82538,-0.0765" /><path
       id="path1-1-3-7"
       style="stroke-width:3.89722;fill:#4d4d4d"
       d="m 155.22152,130.03324 c 6.19934,6.45235 8.4247,15.75273 5.81736,24.31231 -2.60735,8.55958 -9.63968,15.03996 -18.38338,16.9405 -8.74371,1.90057 -15.77985,-0.32979 -21.70512,-7.0347 0,0 -0.77764,-2.28269 1.48144,-2.943 2.25839,-0.6601 4.21429,1.33795 5.99798,1.09567 2.0085,-0.27284 2.33209,-2.38207 7.19693,-2.29385 2.23208,0.0406 2.24857,-2.79894 4.50899,-4.17626 3.61927,-2.20527 4.07544,-0.71949 5.75406,-4.29044 1.68634,-3.58732 0.29913,-4.63946 2.32903,-9.02464 1.62039,-3.50053 -0.32909,-3.02757 1.6011,-6.24723 1.03671,-1.72931 1.65121,-1.84842 2.89793,-2.40609 1.21283,-0.54251 2.19874,-3.55958 2.50368,-3.93227 z"
       sodipodi:nodetypes="csscssssssssc" /><path
       style="fill:#ffffff;fill-opacity:1;stroke:none;stroke-width:0.646853;stroke-dasharray:none;stroke-opacity:1"
       id="path2-3-27-9-2"
       sodipodi:type="arc"
       sodipodi:cx="235.9402"
       sodipodi:cy="-67.381027"
       sodipodi:rx="2.2330081"
       sodipodi:ry="0.94478816"
       sodipodi:start="5.5177844"
       sodipodi:end="5.4875155"
       sodipodi:open="true"
       sodipodi:arc-type="arc"
       d="m 237.55043,-68.035601 a 2.2330081,0.94478816 0 0 1 -0.051,1.330892 2.2330081,0.94478816 0 0 1 -3.14586,-0.01151 2.2330081,0.94478816 0 0 1 0.003,-1.331066 2.2330081,0.94478816 0 0 1 3.14591,-0.0086"
       transform="matrix(0.5529027,0.83324584,-0.38436637,0.92318065,0,0)" /><text
       xml:space="preserve"
       transform="matrix(0.46869913,0,0,0.46869913,-69.050363,25.772162)"
       id="text1-7"
       style="font-style:normal;font-variant:normal;font-weight:normal;font-stretch:normal;font-size:140px;line-height:0.8;font-family:'Adwaita Sans';-inkscape-font-specification:'Adwaita Sans, Normal';font-variant-ligatures:normal;font-variant-caps:normal;font-variant-numeric:normal;font-variant-east-asian:normal;text-align:start;writing-mode:lr-tb;direction:ltr;white-space:pre;shape-inside:url(#rect1-3);display:inline;fill:#000000;stroke-width:0"><tspan
         x="176.5918"
         y="198.02204"
         id="tspan1">SH   T
</tspan></text><text
       xml:space="preserve"
       transform="matrix(0.46869913,0,0,0.46869913,-17.679025,79.490992)"
       id="text1-7-9"
       style="font-style:normal;font-variant:normal;font-weight:normal;font-stretch:normal;font-size:140px;line-height:0.8;font-family:'Adwaita Sans';-inkscape-font-specification:'Adwaita Sans, Normal';font-variant-ligatures:normal;font-variant-caps:normal;font-variant-numeric:normal;font-variant-east-asian:normal;text-align:start;writing-mode:lr-tb;direction:ltr;white-space:pre;shape-inside:url(#rect1-3-1);display:inline;fill:#000000;stroke-width:0"><tspan
         x="176.5918"
         y="198.02204"
         id="tspan2">G   LF
</tspan></text><text
       xml:space="preserve"
       transform="matrix(0.46869916,0,0,0.46869916,-76.77429,-27.946669)"
       id="text1"
       style="font-style:normal;font-variant:normal;font-weight:normal;font-stretch:normal;font-size:140px;line-height:0.8;font-family:'Adwaita Sans';-inkscape-font-specification:'Adwaita Sans, Normal';font-variant-ligatures:normal;font-variant-caps:normal;font-variant-numeric:normal;font-variant-east-asian:normal;text-align:start;writing-mode:lr-tb;direction:ltr;white-space:pre;shape-inside:url(#rect1);fill:#000000;stroke-width:0"><tspan
         x="176.5918"
         y="198.02204"
         id="tspan3">        PEN
</tspan></text><circle
       style="fill:none;stroke:#000000;stroke-width:3.697;stroke-dasharray:none;stroke-opacity:1"
       id="path1"
       cx="112.42308"
       cy="40.996311"
       r="24.702164" /><path
       style="fill:#ffffff;fill-opacity:1;stroke:none;stroke-width:0.808093;stroke-dasharray:none;stroke-opacity:1"
       id="path2"
       sodipodi:type="arc"
       sodipodi:cx="116.25274"
       sodipodi:cy="-7.0331402"
       sodipodi:rx="2.8333173"
       sodipodi:ry="1.1620957"
       sodipodi:start="5.5177844"
       sodipodi:end="5.4875155"
       sodipodi:open="true"
       sodipodi:arc-type="arc"
       d="m 118.29586,-7.8382704 a 2.8333173,1.1620957 0 0 1 -0.0647,1.6370063 2.8333173,1.1620957 0 0 1 -3.99158,-0.014156 2.8333173,1.1620957 0 0 1 0.004,-1.6372206 2.8333173,1.1620957 0 0 1 3.99164,-0.010622"
       transform="matrix(0.8330602,0.55318234,-0.14813337,0.98896739,0,0)"
       inkscape:transform-center-x="-2.9496529"
       inkscape:transform-center-y="-4.4108057" /><path
       style="fill:#ffffff;fill-opacity:1;stroke:none;stroke-width:0.753208;stroke-dasharray:none;stroke-opacity:1"
       id="path2-5"
       sodipodi:type="arc"
       sodipodi:cx="109.79817"
       sodipodi:cy="24.725061"
       sodipodi:rx="2.6750956"
       sodipodi:ry="1.0693103"
       sodipodi:start="5.5177844"
       sodipodi:end="5.4875155"
       sodipodi:open="true"
       sodipodi:arc-type="arc"
       d="m 111.7272,23.984215 a 2.6750956,1.0693103 0 0 1 -0.0611,1.506303 2.6750956,1.0693103 0 0 1 -3.76867,-0.01303 2.6750956,1.0693103 0 0 1 0.004,-1.5065 2.6750956,1.0693103 0 0 1 3.76873,-0.0098"
       transform="matrix(0.94013427,0.34080428,0.06821276,0.9976708,0,0)"
       inkscape:transform-center-x="-1.8506064"
       inkscape:transform-center-y="-4.5734816" /><path
       style="fill:#ffffff;fill-opacity:1;stroke:none;stroke-width:0.808093;stroke-dasharray:none;stroke-opacity:1"
       id="path2-3"
       sodipodi:type="arc"
       sodipodi:cx="84.211739"
       sodipodi:cy="69.471397"
       sodipodi:rx="2.8333173"
       sodipodi:ry="1.1620955"
       sodipodi:start="5.5177844"
       sodipodi:end="5.4875155"
       sodipodi:open="true"
       sodipodi:arc-type="arc"
       d="m 86.254857,68.666267 a 2.8333173,1.1620955 0 0 1 -0.06472,1.637006 2.8333173,1.1620955 0 0 1 -3.991577,-0.01416 2.8333173,1.1620955 0 0 1 0.0043,-1.63722 2.8333173,1.1620955 0 0 1 3.991642,-0.01062"
       transform="matrix(0.9999261,-0.01215722,0.43465614,0.90059649,0,0)" /><path
       style="fill:#ffffff;fill-opacity:1;stroke:none;stroke-width:0.971307;stroke-dasharray:none;stroke-opacity:1"
       id="path2-3-6"
       sodipodi:type="arc"
       sodipodi:cx="83.650124"
       sodipodi:cy="117.65033"
       sodipodi:rx="3.0387461"
       sodipodi:ry="1.5654255"
       sodipodi:start="5.5177844"
       sodipodi:end="5.4875155"
       sodipodi:open="true"
       sodipodi:arc-type="arc"
       d="m 85.841378,116.56576 a 3.0387461,1.5654255 0 0 1 -0.06941,2.20517 3.0387461,1.5654255 0 0 1 -4.280986,-0.0191 3.0387461,1.5654255 0 0 1 0.0046,-2.20546 3.0387461,1.5654255 0 0 1 4.281056,-0.0143"
       transform="matrix(0.81133973,-0.58457492,0.45449519,0.89074919,0,0)" /><path
       style="fill:#ffffff;fill-opacity:1;stroke:none;stroke-width:0.977145;stroke-dasharray:none;stroke-opacity:1"
       id="path2-3-6-9"
       sodipodi:type="arc"
       sodipodi:cx="114.65369"
       sodipodi:cy="58.257511"
       sodipodi:rx="2.8414779"
       sodipodi:ry="1.6942914"
       sodipodi:start="5.5177844"
       sodipodi:end="5.4875155"
       sodipodi:open="true"
       sodipodi:arc-type="arc"
       d="m 116.70269,57.083662 a 2.8414779,1.6942914 0 0 1 -0.0649,2.386693 2.8414779,1.6942914 0 0 1 -4.00308,-0.02064 2.8414779,1.6942914 0 0 1 0.004,-2.387005 2.8414779,1.6942914 0 0 1 4.00314,-0.01549"
       transform="matrix(0.99990638,-0.01368346,-0.12120565,0.99262742,0,0)" /><path
       style="fill:#ffffff;fill-opacity:1;stroke:none;stroke-width:1.21532;stroke-dasharray:none;stroke-opacity:1"
       id="path2-3-6-9-8"
       sodipodi:type="arc"
       sodipodi:cx="107.48832"
       sodipodi:cy="103.3212"
       sodipodi:rx="3.2071168"
       sodipodi:ry="2.3221054"
       sodipodi:start="5.5177844"
       sodipodi:end="5.4875155"
       sodipodi:open="true"
       sodipodi:arc-type="arc"
       d="m 109.80099,101.71238 a 3.2071168,2.3221054 0 0 1 -0.0733,3.27108 3.2071168,2.3221054 0 0 1 -4.51819,-0.0283 3.2071168,2.3221054 0 0 1 0.005,-3.2715 3.2071168,2.3221054 0 0 1 4.51826,-0.0212"
       transform="matrix(0.89096601,-0.45407,0.19036363,0.98171365,0,0)" /><path
       style="fill:#ffffff;fill-opacity:1;stroke:none;stroke-width:1.13939;stroke-dasharray:none;stroke-opacity:1"
       id="path2-3-6-9-8-0"
       sodipodi:type="arc"
       sodipodi:cx="98.082222"
       sodipodi:cy="103.63603"
       sodipodi:rx="3.0917749"
       sodipodi:ry="2.1171665"
       sodipodi:start="5.5177844"
       sodipodi:end="5.4875155"
       sodipodi:open="true"
       sodipodi:arc-type="arc"
       d="m 100.31172,102.1692 a 3.0917749,2.1171665 0 0 1 -0.0706,2.98239 3.0917749,2.1171665 0 0 1 -4.355688,-0.0258 3.0917749,2.1171665 0 0 1 0.0047,-2.98278 3.0917749,2.1171665 0 0 1 4.355767,-0.0194"
       transform="matrix(0.86698285,-0.49833797,0.37433948,0.92729173,0,0)" /><path
       style="fill:#ffffff;fill-opacity:1;stroke:none;stroke-width:1.13939;stroke-dasharray:none;stroke-opacity:1"
       id="path2-3-6-9-8-0-1"
       sodipodi:type="arc"
       sodipodi:cx="85.276886"
       sodipodi:cy="111.49016"
       sodipodi:rx="3.0917749"
       sodipodi:ry="2.1171665"
       sodipodi:start="5.5177844"
       sodipodi:end="5.4875155"
       sodipodi:open="true"
       sodipodi:arc-type="arc"
       d="m 87.506379,110.02333 a 3.0917749,2.1171665 0 0 1 -0.07062,2.98238 3.0917749,2.1171665 0 0 1 -4.355692,-0.0258 3.0917749,2.1171665 0 0 1 0.0047,-2.98277 3.0917749,2.1171665 0 0 1 4.355763,-0.0194"
       transform="matrix(0.75964323,-0.65034003,0.53966205,0.84188174,0,0)" /><path
       style="fill:#ffffff;fill-opacity:1;stroke:none;stroke-width:1.02195;stroke-dasharray:none;stroke-opacity:1"
       id="path2-3-6-9-8-0-1-2"
       sodipodi:type="arc"
       sodipodi:cx="64.676331"
       sodipodi:cy="120.95551"
       sodipodi:rx="2.7684052"
       sodipodi:ry="1.9021589"
       sodipodi:start="5.5177844"
       sodipodi:end="5.4875155"
       sodipodi:open="true"
       sodipodi:arc-type="arc"
       d="m 66.67264,119.63765 a 2.7684052,1.9021589 0 0 1 -0.06323,2.67951 2.7684052,1.9021589 0 0 1 -3.90013,-0.0232 2.7684052,1.9021589 0 0 1 0.0042,-2.67986 2.7684052,1.9021589 0 0 1 3.900192,-0.0174"
       transform="matrix(0.59436177,-0.80419779,0.72779305,0.68579682,0,0)" /><path
       style="fill:#ffffff;fill-opacity:1;stroke:none;stroke-width:0.798267;stroke-dasharray:none;stroke-opacity:1"
       id="path2-3-62"
       sodipodi:type="arc"
       sodipodi:cx="69.691284"
       sodipodi:cy="-164.29781"
       sodipodi:rx="2.4696307"
       sodipodi:ry="1.3010038"
       sodipodi:start="5.5177844"
       sodipodi:end="5.4875155"
       sodipodi:open="true"
       sodipodi:arc-type="arc"
       d="m 71.472146,-165.19918 a 2.4696307,1.3010038 0 0 1 -0.05641,1.83269 2.4696307,1.3010038 0 0 1 -3.479216,-0.0159 2.4696307,1.3010038 0 0 1 0.0038,-1.83292 2.4696307,1.3010038 0 0 1 3.479273,-0.0119"
       transform="matrix(-0.50235533,0.86466128,-0.99890495,0.0467857,0,0)"
       inkscape:transform-center-x="-0.01074646"
       inkscape:transform-center-y="-0.053034147" /><path
       style="fill:#ffffff;fill-opacity:1;stroke:none;stroke-width:0.813209;stroke-dasharray:none;stroke-opacity:1"
       id="path2-3-9"
       sodipodi:type="arc"
       sodipodi:cx="101.27864"
       sodipodi:cy="-154.58003"
       sodipodi:rx="2.4530056"
       sodipodi:ry="1.3593148"
       sodipodi:start="5.5177844"
       sodipodi:end="5.4875155"
       sodipodi:open="true"
       sodipodi:arc-type="arc"
       d="m 103.04751,-155.5218 a 2.4530056,1.3593148 0 0 1 -0.056,1.91482 2.4530056,1.3593148 0 0 1 -3.45579,-0.0166 2.4530056,1.3593148 0 0 1 0.0037,-1.91507 2.4530056,1.3593148 0 0 1 3.455851,-0.0124"
       transform="matrix(-0.10753754,0.99420102,-0.93080494,0.3655163,0,0)"
       inkscape:transform-center-x="-0.0013679358"
       inkscape:transform-center-y="-0.024162735" /><path
       style="fill:#ffffff;fill-opacity:1;stroke:none;stroke-width:0.724163;stroke-dasharray:none;stroke-opacity:1"
       id="path2-3-2"
       sodipodi:type="arc"
       sodipodi:cx="127.17409"
       sodipodi:cy="-129.74258"
       sodipodi:rx="2.4404235"
       sodipodi:ry="1.0834843"
       sodipodi:start="5.5177844"
       sodipodi:end="5.4875155"
       sodipodi:open="true"
       sodipodi:arc-type="arc"
       d="m 128.93389,-130.49325 a 2.4404235,1.0834843 0 0 1 -0.0557,1.52627 2.4404235,1.0834843 0 0 1 -3.43807,-0.0132 2.4404235,1.0834843 0 0 1 0.004,-1.52647 2.4404235,1.0834843 0 0 1 3.43812,-0.01"
       transform="matrix(0.28222336,0.95934873,-0.74452952,0.66758954,0,0)" /><path
       style="fill:#4d4d4d;fill-opacity:1;stroke:none;stroke-width:2.65542;stroke-dasharray:none;stroke-opacity:1"
       d="m 92.117239,45.534932 c 2.231094,0.456151 3.731316,1.63954 4.376468,4.106938 0.405245,1.549869 -0.665692,0.350289 -0.665692,0.350289 0,0 -0.944212,-2.736005 -2.546299,-3.350082 -1.455464,-0.557868 -2.115302,-0.762809 -1.164477,-1.107145 z"
       id="path3"
       sodipodi:nodetypes="cscsc" /><path
       style="fill:#4d4d4d;fill-opacity:1;stroke:none;stroke-width:2.65542;stroke-dasharray:none;stroke-opacity:1"
       d="m 121.80836,28.017995 c -1.77434,-1.427426 -2.56589,-3.16654 -2.00921,-5.655391 0.34967,-1.56335 0.7522,-0.0071 0.7522,-0.0071 0,0 -0.41387,2.864594 0.729,4.144298 1.03827,1.162575 1.53095,1.646981 0.52801,1.517558 z"
       id="path3-9"
       sodipodi:nodetypes="cscsc" /><path
       style="fill:#4d4d4d;fill-opacity:1;stroke:none;stroke-width:3.08984;stroke-dasharray:none;stroke-opacity:1"
       d="m 99.898692,48.59111 c 1.359498,-2.217976 3.182558,-3.244237 5.997078,-2.64651 1.76791,0.375461 0.0986,0.919813 0.0986,0.919813 0,0 -3.21184,-0.410483 -4.48513,1.030141 -1.15675,1.308808 -1.631437,1.92758 -1.610601,0.696538 z"
       id="path3-4"
       sodipodi:nodetypes="cscsc" /><path
       style="fill:#4d4d4d;fill-opacity:1;stroke:none;stroke-width:3.08984;stroke-dasharray:none;stroke-opacity:1"
       d="m 114.47541,35.292714 c 0.47454,-2.557831 1.80886,-4.169152 4.65068,-4.619546 1.78506,-0.282903 0.42165,0.82341 0.42165,0.82341 0,0 -3.14567,0.767557 -3.81825,2.568761 -0.61101,1.63637 -0.83248,2.384139 -1.2541,1.227357 z"
       id="path3-4-4"
       sodipodi:nodetypes="cscsc" /><path
       style="fill:#4d4d4d;fill-opacity:1;stroke:none;stroke-width:4.062;stroke-dasharray:none;stroke-opacity:1"
       d="m 109.11279,44.690494 c 1.281,-3.429798 3.25363,-5.138425 6.58447,-4.538148 2.09223,0.377073 0.23431,1.354867 0.23431,1.354867 0,0 -3.76553,-0.281875 -5.04858,1.985578 -1.16563,2.060032 -1.63327,3.026595 -1.77021,1.197685 z"
       id="path3-4-9"
       sodipodi:nodetypes="cscsc" /><circle
       style="fill:none;stroke:#000000;stroke-width:3.89722;stroke-dasharray:none;stroke-opacity:1"
       id="path1-3"
       cx="126.48405"
       cy="94.715141"
       r="24.702164" /><path
       style="fill:#ffffff;fill-opacity:1;stroke:none;stroke-width:0.808093;stroke-dasharray:none;stroke-opacity:1"
       id="path2-33"
       sodipodi:type="arc"
       sodipodi:cx="140.38947"
       sodipodi:cy="33.783997"
       sodipodi:rx="2.8333173"
       sodipodi:ry="1.1620957"
       sodipodi:start="5.5177844"
       sodipodi:end="5.4875155"
       sodipodi:open="true"
       sodipodi:arc-type="arc"
       d="m 142.43258,32.978866 a 2.8333173,1.1620957 0 0 1 -0.0647,1.637007 2.8333173,1.1620957 0 0 1 -3.99158,-0.01416 2.8333173,1.1620957 0 0 1 0.004,-1.637221 2.8333173,1.1620957 0 0 1 3.99164,-0.01062"
       transform="matrix(0.8330602,0.55318234,-0.14813337,0.98896739,0,0)"
       inkscape:transform-center-x="-2.9496529"
       inkscape:transform-center-y="-4.4108057" /><path
       style="fill:#ffffff;fill-opacity:1;stroke:none;stroke-width:0.753208;stroke-dasharray:none;stroke-opacity:1"
       id="path2-5-8"
       sodipodi:type="arc"
       sodipodi:cx="121.12859"
       sodipodi:cy="74.69883"
       sodipodi:rx="2.6750956"
       sodipodi:ry="1.0693103"
       sodipodi:start="5.5177844"
       sodipodi:end="5.4875155"
       sodipodi:open="true"
       sodipodi:arc-type="arc"
       d="m 123.05762,73.957984 a 2.6750956,1.0693103 0 0 1 -0.0611,1.506302 2.6750956,1.0693103 0 0 1 -3.76867,-0.01303 2.6750956,1.0693103 0 0 1 0.004,-1.506499 2.6750956,1.0693103 0 0 1 3.76873,-0.0098"
       transform="matrix(0.94013427,0.34080428,0.06821276,0.9976708,0,0)"
       inkscape:transform-center-x="-1.8506064"
       inkscape:transform-center-y="-4.5734816" /><path
       style="fill:#ffffff;fill-opacity:1;stroke:none;stroke-width:0.808093;stroke-dasharray:none;stroke-opacity:1"
       id="path2-3-0"
       sodipodi:type="arc"
       sodipodi:cx="72.414665"
       sodipodi:cy="128.96021"
       sodipodi:rx="2.8333173"
       sodipodi:ry="1.1620955"
       sodipodi:start="5.5177844"
       sodipodi:end="5.4875155"
       sodipodi:open="true"
       sodipodi:arc-type="arc"
       d="m 74.457784,128.15507 a 2.8333173,1.1620955 0 0 1 -0.06472,1.63701 2.8333173,1.1620955 0 0 1 -3.991577,-0.0142 2.8333173,1.1620955 0 0 1 0.0043,-1.63723 2.8333173,1.1620955 0 0 1 3.991642,-0.0106"
       transform="matrix(0.9999261,-0.01215722,0.43465614,0.90059649,0,0)" /><path
       style="fill:#ffffff;fill-opacity:1;stroke:none;stroke-width:0.971307;stroke-dasharray:none;stroke-opacity:1"
       id="path2-3-6-4"
       sodipodi:type="arc"
       sodipodi:cx="71.620262"
       sodipodi:cy="170.06293"
       sodipodi:rx="3.0387461"
       sodipodi:ry="1.5654255"
       sodipodi:start="5.5177844"
       sodipodi:end="5.4875155"
       sodipodi:open="true"
       sodipodi:arc-type="arc"
       d="m 73.811516,168.97836 a 3.0387461,1.5654255 0 0 1 -0.06941,2.20516 3.0387461,1.5654255 0 0 1 -4.280985,-0.0191 3.0387461,1.5654255 0 0 1 0.0046,-2.20545 3.0387461,1.5654255 0 0 1 4.281055,-0.0143"
       transform="matrix(0.81133973,-0.58457492,0.45449519,0.89074919,0,0)" /><path
       style="fill:#ffffff;fill-opacity:1;stroke:none;stroke-width:0.977145;stroke-dasharray:none;stroke-opacity:1"
       id="path2-3-6-9-7"
       sodipodi:type="arc"
       sodipodi:cx="135.3105"
       sodipodi:cy="112.66008"
       sodipodi:rx="2.8414779"
       sodipodi:ry="1.6942914"
       sodipodi:start="5.5177844"
       sodipodi:end="5.4875155"
       sodipodi:open="true"
       sodipodi:arc-type="arc"
       d="m 137.3595,111.48623 a 2.8414779,1.6942914 0 0 1 -0.0649,2.38669 2.8414779,1.6942914 0 0 1 -4.00307,-0.0206 2.8414779,1.6942914 0 0 1 0.004,-2.387 2.8414779,1.6942914 0 0 1 4.00314,-0.0155"
       transform="matrix(0.99990638,-0.01368346,-0.12120565,0.99262742,0,0)" /><path
       style="fill:#ffffff;fill-opacity:1;stroke:none;stroke-width:1.21532;stroke-dasharray:none;stroke-opacity:1"
       id="path2-3-6-9-8-6"
       sodipodi:type="arc"
       sodipodi:cx="111.21082"
       sodipodi:cy="159.76241"
       sodipodi:rx="3.2071168"
       sodipodi:ry="2.3221054"
       sodipodi:start="5.5177844"
       sodipodi:end="5.4875155"
       sodipodi:open="true"
       sodipodi:arc-type="arc"
       d="m 113.52349,158.15359 a 3.2071168,2.3221054 0 0 1 -0.0733,3.27107 3.2071168,2.3221054 0 0 1 -4.51818,-0.0283 3.2071168,2.3221054 0 0 1 0.005,-3.2715 3.2071168,2.3221054 0 0 1 4.51826,-0.0212"
       transform="matrix(0.89096601,-0.45407,0.19036363,0.98171365,0,0)" /><path
       style="fill:#ffffff;fill-opacity:1;stroke:none;stroke-width:1.13939;stroke-dasharray:none;stroke-opacity:1"
       id="path2-3-6-9-8-0-8"
       sodipodi:type="arc"
       sodipodi:cx="90.943901"
       sodipodi:cy="157.7307"
       sodipodi:rx="3.0917749"
       sodipodi:ry="2.1171665"
       sodipodi:start="5.5177844"
       sodipodi:end="5.4875155"
       sodipodi:open="true"
       sodipodi:arc-type="arc"
       d="m 93.173394,156.26387 a 3.0917749,2.1171665 0 0 1 -0.07062,2.98238 3.0917749,2.1171665 0 0 1 -4.355692,-0.0258 3.0917749,2.1171665 0 0 1 0.0047,-2.98277 3.0917749,2.1171665 0 0 1 4.355763,-0.0193"
       transform="matrix(0.86698285,-0.49833797,0.37433948,0.92729173,0,0)" /><path
       style="fill:#ffffff;fill-opacity:1;stroke:none;stroke-width:1.13939;stroke-dasharray:none;stroke-opacity:1"
       id="path2-3-6-9-8-0-1-9"
       sodipodi:type="arc"
       sodipodi:cx="67.959923"
       sodipodi:cy="161.92113"
       sodipodi:rx="3.0917749"
       sodipodi:ry="2.1171665"
       sodipodi:start="5.5177844"
       sodipodi:end="5.4875155"
       sodipodi:open="true"
       sodipodi:arc-type="arc"
       d="m 70.189416,160.4543 a 3.0917749,2.1171665 0 0 1 -0.07062,2.98238 3.0917749,2.1171665 0 0 1 -4.355692,-0.0258 3.0917749,2.1171665 0 0 1 0.0047,-2.98277 3.0917749,2.1171665 0 0 1 4.355764,-0.0194"
       transform="matrix(0.75964323,-0.65034003,0.53966205,0.84188174,0,0)" /><path
       style="fill:#ffffff;fill-opacity:1;stroke:none;stroke-width:1.02195;stroke-dasharray:none;stroke-opacity:1"
       id="path2-3-6-9-8-0-1-2-0"
       sodipodi:type="arc"
       sodipodi:cx="35.01252"
       sodipodi:cy="164.50087"
       sodipodi:rx="2.7684052"
       sodipodi:ry="1.9021589"
       sodipodi:start="5.5177844"
       sodipodi:end="5.4875155"
       sodipodi:open="true"
       sodipodi:arc-type="arc"
       d="m 37.00883,163.183 a 2.7684052,1.9021589 0 0 1 -0.06324,2.67951 2.7684052,1.9021589 0 0 1 -3.900129,-0.0232 2.7684052,1.9021589 0 0 1 0.0042,-2.67986 2.7684052,1.9021589 0 0 1 3.900193,-0.0174"
       transform="matrix(0.59436177,-0.80419779,0.72779305,0.68579682,0,0)" /><path
       style="fill:#ffffff;fill-opacity:1;stroke:none;stroke-width:0.798267;stroke-dasharray:none;stroke-opacity:1"
       id="path2-3-62-6"
       sodipodi:type="arc"
       sodipodi:cx="134.33914"
       sodipodi:cy="-210.88599"
       sodipodi:rx="2.4696307"
       sodipodi:ry="1.3010038"
       sodipodi:start="5.5177844"
       sodipodi:end="5.4875155"
       sodipodi:open="true"
       sodipodi:arc-type="arc"
       d="m 136.12,-211.78736 a 2.4696307,1.3010038 0 0 1 -0.0564,1.83269 2.4696307,1.3010038 0 0 1 -3.47921,-0.0159 2.4696307,1.3010038 0 0 1 0.004,-1.83292 2.4696307,1.3010038 0 0 1 3.47928,-0.0119"
       transform="matrix(-0.50235533,0.86466128,-0.99890495,0.0467857,0,0)"
       inkscape:transform-center-x="-0.01074646"
       inkscape:transform-center-y="-0.053034147" /><path
       style="fill:#ffffff;fill-opacity:1;stroke:none;stroke-width:0.813209;stroke-dasharray:none;stroke-opacity:1"
       id="path2-3-9-8"
       sodipodi:type="arc"
       sodipodi:cx="163.50777"
       sodipodi:cy="-176.87573"
       sodipodi:rx="2.4530056"
       sodipodi:ry="1.3593148"
       sodipodi:start="5.5177844"
       sodipodi:end="5.4875155"
       sodipodi:open="true"
       sodipodi:arc-type="arc"
       d="m 165.27664,-177.8175 a 2.4530056,1.3593148 0 0 1 -0.056,1.91482 2.4530056,1.3593148 0 0 1 -3.45579,-0.0166 2.4530056,1.3593148 0 0 1 0.004,-1.91507 2.4530056,1.3593148 0 0 1 3.45585,-0.0124"
       transform="matrix(-0.10753754,0.99420102,-0.93080494,0.3655163,0,0)"
       inkscape:transform-center-x="-0.0013679358"
       inkscape:transform-center-y="-0.024162735" /><path
       style="fill:#ffffff;fill-opacity:1;stroke:none;stroke-width:0.724163;stroke-dasharray:none;stroke-opacity:1"
       id="path2-3-2-7"
       sodipodi:type="arc"
       sodipodi:cx="181.88075"
       sodipodi:cy="-127.89105"
       sodipodi:rx="2.4404235"
       sodipodi:ry="1.0834843"
       sodipodi:start="5.5177844"
       sodipodi:end="5.4875155"
       sodipodi:open="true"
       sodipodi:arc-type="arc"
       d="m 183.64055,-128.64172 a 2.4404235,1.0834843 0 0 1 -0.0557,1.52627 2.4404235,1.0834843 0 0 1 -3.43807,-0.0132 2.4404235,1.0834843 0 0 1 0.004,-1.52647 2.4404235,1.0834843 0 0 1 3.43813,-0.01"
       transform="matrix(0.28222336,0.95934873,-0.74452952,0.66758954,0,0)" /><path
       style="fill:#4d4d4d;fill-opacity:1;stroke:none;stroke-width:2.65542;stroke-dasharray:none;stroke-opacity:1"
       d="m 106.17821,99.253762 c 2.23109,0.456151 3.73132,1.639538 4.37647,4.106938 0.40524,1.54987 -0.6657,0.35029 -0.6657,0.35029 0,0 -0.94421,-2.73601 -2.54629,-3.35008 -1.45547,-0.557871 -2.11531,-0.762812 -1.16448,-1.107148 z"
       id="path3-0"
       sodipodi:nodetypes="cscsc" /><path
       style="fill:#4d4d4d;fill-opacity:1;stroke:none;stroke-width:2.65542;stroke-dasharray:none;stroke-opacity:1"
       d="m 135.86933,81.736825 c -1.77434,-1.427426 -2.56589,-3.16654 -2.00921,-5.655391 0.34967,-1.56335 0.7522,-0.0071 0.7522,-0.0071 0,0 -0.41387,2.864594 0.729,4.144298 1.03827,1.162575 1.53095,1.646981 0.52801,1.517558 z"
       id="path3-9-3"
       sodipodi:nodetypes="cscsc" /><path
       style="fill:#4d4d4d;fill-opacity:1;stroke:none;stroke-width:3.08984;stroke-dasharray:none;stroke-opacity:1"
       d="m 113.95966,102.30994 c 1.3595,-2.21798 3.18256,-3.244237 5.99708,-2.64651 1.76791,0.37546 0.0986,0.91981 0.0986,0.91981 0,0 -3.21184,-0.41048 -4.48513,1.03014 -1.15675,1.30881 -1.63144,1.92758 -1.6106,0.69654 z"
       id="path3-4-3"
       sodipodi:nodetypes="cscsc" /><path
       style="fill:#4d4d4d;fill-opacity:1;stroke:none;stroke-width:3.08984;stroke-dasharray:none;stroke-opacity:1"
       d="m 128.53638,89.011544 c 0.47454,-2.557831 1.80886,-4.169152 4.65068,-4.619546 1.78506,-0.282903 0.42165,0.82341 0.42165,0.82341 0,0 -3.14567,0.767557 -3.81825,2.568761 -0.61101,1.63637 -0.83248,2.384139 -1.2541,1.227357 z"
       id="path3-4-4-3"
       sodipodi:nodetypes="cscsc" /><path
       style="fill:#4d4d4d;fill-opacity:1;stroke:none;stroke-width:4.062;stroke-dasharray:none;stroke-opacity:1"
       d="m 123.17376,98.409324 c 1.281,-3.429798 3.25363,-5.138425 6.58447,-4.538148 2.09223,0.377073 0.23431,1.354867 0.23431,1.354867 0,0 -3.76553,-0.281875 -5.04858,1.985578 -1.16563,2.060032 -1.63327,3.026599 -1.77021,1.197685 z"
       id="path3-4-9-7"
       sodipodi:nodetypes="cscsc" /><circle
       style="fill:none;stroke:#000000;stroke-width:3.89722;stroke-dasharray:none;stroke-opacity:1"
       id="path1-3-5"
       cx="138.67024"
       cy="148.43398"
       r="24.702164" /><path
       style="fill:#ffffff;fill-opacity:1;stroke:none;stroke-width:0.808093;stroke-dasharray:none;stroke-opacity:1"
       id="path2-33-9"
       sodipodi:type="arc"
       sodipodi:cx="162.47931"
       sodipodi:cy="75.746078"
       sodipodi:rx="2.8333173"
       sodipodi:ry="1.1620957"
       sodipodi:start="5.5177844"
       sodipodi:end="5.4875155"
       sodipodi:open="true"
       sodipodi:arc-type="arc"
       d="m 164.52243,74.940948 a 2.8333173,1.1620957 0 0 1 -0.0647,1.637007 2.8333173,1.1620957 0 0 1 -3.99158,-0.01416 2.8333173,1.1620957 0 0 1 0.004,-1.637221 2.8333173,1.1620957 0 0 1 3.99164,-0.01062"
       transform="matrix(0.8330602,0.55318234,-0.14813337,0.98896739,0,0)"
       inkscape:transform-center-x="-2.9496529"
       inkscape:transform-center-y="-4.4108057" /><path
       style="fill:#ffffff;fill-opacity:1;stroke:none;stroke-width:0.753208;stroke-dasharray:none;stroke-opacity:1"
       id="path2-5-8-6"
       sodipodi:type="arc"
       sodipodi:cx="130.41417"
       sodipodi:cy="125.37113"
       sodipodi:rx="2.6750956"
       sodipodi:ry="1.0693103"
       sodipodi:start="5.5177844"
       sodipodi:end="5.4875155"
       sodipodi:open="true"
       sodipodi:arc-type="arc"
       d="m 132.34319,124.63029 a 2.6750956,1.0693103 0 0 1 -0.0611,1.5063 2.6750956,1.0693103 0 0 1 -3.76867,-0.013 2.6750956,1.0693103 0 0 1 0.004,-1.5065 2.6750956,1.0693103 0 0 1 3.76874,-0.01"
       transform="matrix(0.94013427,0.34080428,0.06821276,0.9976708,0,0)"
       inkscape:transform-center-x="-1.8506064"
       inkscape:transform-center-y="-4.5734816" /><path
       style="fill:#ffffff;fill-opacity:1;stroke:none;stroke-width:0.808093;stroke-dasharray:none;stroke-opacity:1"
       id="path2-3-0-0"
       sodipodi:type="arc"
       sodipodi:cx="58.753597"
       sodipodi:cy="188.42386"
       sodipodi:rx="2.8333173"
       sodipodi:ry="1.1620955"
       sodipodi:start="5.5177844"
       sodipodi:end="5.4875155"
       sodipodi:open="true"
       sodipodi:arc-type="arc"
       d="m 60.796716,187.61873 a 2.8333173,1.1620955 0 0 1 -0.06472,1.637 2.8333173,1.1620955 0 0 1 -3.991577,-0.0142 2.8333173,1.1620955 0 0 1 0.0043,-1.63722 2.8333173,1.1620955 0 0 1 3.991642,-0.0106"
       transform="matrix(0.9999261,-0.01215722,0.43465614,0.90059649,0,0)" /><path
       style="fill:#ffffff;fill-opacity:1;stroke:none;stroke-width:0.971307;stroke-dasharray:none;stroke-opacity:1"
       id="path2-3-6-4-4"
       sodipodi:type="arc"
       sodipodi:cx="57.900814"
       sodipodi:cy="221.3667"
       sodipodi:rx="3.0387461"
       sodipodi:ry="1.5654255"
       sodipodi:start="5.5177844"
       sodipodi:end="5.4875155"
       sodipodi:open="true"
       sodipodi:arc-type="arc"
       d="m 60.092068,220.28213 a 3.0387461,1.5654255 0 0 1 -0.06941,2.20517 3.0387461,1.5654255 0 0 1 -4.280985,-0.0191 3.0387461,1.5654255 0 0 1 0.0046,-2.20546 3.0387461,1.5654255 0 0 1 4.281055,-0.0143"
       transform="matrix(0.81133973,-0.58457492,0.45449519,0.89074919,0,0)" /><path
       style="fill:#ffffff;fill-opacity:1;stroke:none;stroke-width:0.977145;stroke-dasharray:none;stroke-opacity:1"
       id="path2-3-6-9-7-1"
       sodipodi:type="arc"
       sodipodi:cx="154.0892"
       sodipodi:cy="167.03677"
       sodipodi:rx="2.8414779"
       sodipodi:ry="1.6942914"
       sodipodi:start="5.5177844"
       sodipodi:end="5.4875155"
       sodipodi:open="true"
       sodipodi:arc-type="arc"
       d="m 156.13821,165.86292 a 2.8414779,1.6942914 0 0 1 -0.0649,2.3867 2.8414779,1.6942914 0 0 1 -4.00307,-0.0206 2.8414779,1.6942914 0 0 1 0.004,-2.38701 2.8414779,1.6942914 0 0 1 4.00314,-0.0155"
       transform="matrix(0.99990638,-0.01368346,-0.12120565,0.99262742,0,0)" /><path
       style="fill:#ffffff;fill-opacity:1;stroke:none;stroke-width:1.21532;stroke-dasharray:none;stroke-opacity:1"
       id="path2-3-6-9-8-6-0"
       sodipodi:type="arc"
       sodipodi:cx="113.01834"
       sodipodi:cy="215.31789"
       sodipodi:rx="3.2071168"
       sodipodi:ry="2.3221054"
       sodipodi:start="5.5177844"
       sodipodi:end="5.4875155"
       sodipodi:open="true"
       sodipodi:arc-type="arc"
       d="m 115.33101,213.70907 a 3.2071168,2.3221054 0 0 1 -0.0733,3.27108 3.2071168,2.3221054 0 0 1 -4.51818,-0.0283 3.2071168,2.3221054 0 0 1 0.005,-3.2715 3.2071168,2.3221054 0 0 1 4.51826,-0.0212"
       transform="matrix(0.89096601,-0.45407,0.19036363,0.98171365,0,0)" /><path
       style="fill:#ffffff;fill-opacity:1;stroke:none;stroke-width:1.13939;stroke-dasharray:none;stroke-opacity:1"
       id="path2-3-6-9-8-0-8-4"
       sodipodi:type="arc"
       sodipodi:cx="82.050423"
       sodipodi:cy="210.88213"
       sodipodi:rx="3.0917749"
       sodipodi:ry="2.1171665"
       sodipodi:start="5.5177844"
       sodipodi:end="5.4875155"
       sodipodi:open="true"
       sodipodi:arc-type="arc"
       d="m 84.279916,209.4153 a 3.0917749,2.1171665 0 0 1 -0.07062,2.98238 3.0917749,2.1171665 0 0 1 -4.355693,-0.0258 3.0917749,2.1171665 0 0 1 0.0047,-2.98277 3.0917749,2.1171665 0 0 1 4.355764,-0.0194"
       transform="matrix(0.86698285,-0.49833797,0.37433948,0.92729173,0,0)" /><path
       style="fill:#ffffff;fill-opacity:1;stroke:none;stroke-width:1.13939;stroke-dasharray:none;stroke-opacity:1"
       id="path2-3-6-9-8-0-1-9-8"
       sodipodi:type="arc"
       sodipodi:cx="49.049461"
       sodipodi:cy="211.12117"
       sodipodi:rx="3.0917749"
       sodipodi:ry="2.1171665"
       sodipodi:start="5.5177844"
       sodipodi:end="5.4875155"
       sodipodi:open="true"
       sodipodi:arc-type="arc"
       d="m 51.278955,209.65434 a 3.0917749,2.1171665 0 0 1 -0.07062,2.98239 3.0917749,2.1171665 0 0 1 -4.355692,-0.0258 3.0917749,2.1171665 0 0 1 0.0047,-2.98278 3.0917749,2.1171665 0 0 1 4.355763,-0.0194"
       transform="matrix(0.75964323,-0.65034003,0.53966205,0.84188174,0,0)" /><path
       style="fill:#ffffff;fill-opacity:1;stroke:none;stroke-width:1.02195;stroke-dasharray:none;stroke-opacity:1"
       id="path2-3-6-9-8-0-1-2-0-7"
       sodipodi:type="arc"
       sodipodi:cx="4.053793"
       sodipodi:cy="206.52774"
       sodipodi:rx="2.7684052"
       sodipodi:ry="1.9021589"
       sodipodi:start="5.5177844"
       sodipodi:end="5.4875155"
       sodipodi:open="true"
       sodipodi:arc-type="arc"
       d="m 6.0501028,205.20988 a 2.7684052,1.9021589 0 0 1 -0.063235,2.6795 2.7684052,1.9021589 0 0 1 -3.9001291,-0.0232 2.7684052,1.9021589 0 0 1 0.00421,-2.67986 2.7684052,1.9021589 0 0 1 3.9001928,-0.0174"
       transform="matrix(0.59436177,-0.80419779,0.72779305,0.68579682,0,0)" /><path
       style="fill:#ffffff;fill-opacity:1;stroke:none;stroke-width:0.798267;stroke-dasharray:none;stroke-opacity:1"
       id="path2-3-62-6-0"
       sodipodi:type="arc"
       sodipodi:cx="198.8826"
       sodipodi:cy="-255.54483"
       sodipodi:rx="2.4696307"
       sodipodi:ry="1.3010038"
       sodipodi:start="5.5177844"
       sodipodi:end="5.4875155"
       sodipodi:open="true"
       sodipodi:arc-type="arc"
       d="m 200.66346,-256.4462 a 2.4696307,1.3010038 0 0 1 -0.0564,1.83268 2.4696307,1.3010038 0 0 1 -3.47921,-0.0159 2.4696307,1.3010038 0 0 1 0.004,-1.83292 2.4696307,1.3010038 0 0 1 3.47927,-0.0119"
       transform="matrix(-0.50235533,0.86466128,-0.99890495,0.0467857,0,0)"
       inkscape:transform-center-x="-0.01074646"
       inkscape:transform-center-y="-0.053034147" /><path
       style="fill:#ffffff;fill-opacity:1;stroke:none;stroke-width:0.813209;stroke-dasharray:none;stroke-opacity:1"
       id="path2-3-9-8-8"
       sodipodi:type="arc"
       sodipodi:cx="224.96356"
       sodipodi:cy="-197.06792"
       sodipodi:rx="2.4530056"
       sodipodi:ry="1.3593148"
       sodipodi:start="5.5177844"
       sodipodi:end="5.4875155"
       sodipodi:open="true"
       sodipodi:arc-type="arc"
       d="m 226.73244,-198.00969 a 2.4530056,1.3593148 0 0 1 -0.056,1.91483 2.4530056,1.3593148 0 0 1 -3.4558,-0.0166 2.4530056,1.3593148 0 0 1 0.004,-1.91507 2.4530056,1.3593148 0 0 1 3.45585,-0.0124"
       transform="matrix(-0.10753754,0.99420102,-0.93080494,0.3655163,0,0)"
       inkscape:transform-center-x="-0.0013679358"
       inkscape:transform-center-y="-0.024162735" /><path
       style="fill:#ffffff;fill-opacity:1;stroke:none;stroke-width:0.724163;stroke-dasharray:none;stroke-opacity:1"
       id="path2-3-2-7-6"
       sodipodi:type="arc"
       sodipodi:cx="235.20088"
       sodipodi:cy="-124.04701"
       sodipodi:rx="2.4404235"
       sodipodi:ry="1.0834843"
       sodipodi:start="5.5177844"
       sodipodi:end="5.4875155"
       sodipodi:open="true"
       sodipodi:arc-type="arc"
       d="m 236.96068,-124.79768 a 2.4404235,1.0834843 0 0 1 -0.0557,1.52627 2.4404235,1.0834843 0 0 1 -3.43807,-0.0132 2.4404235,1.0834843 0 0 1 0.004,-1.52647 2.4404235,1.0834843 0 0 1 3.43813,-0.01"
       transform="matrix(0.28222336,0.95934873,-0.74452952,0.66758954,0,0)" /><path
       style="fill:#4d4d4d;fill-opacity:1;stroke:none;stroke-width:2.65542;stroke-dasharray:none;stroke-opacity:1"
       d="m 118.3644,152.9726 c 2.23109,0.45615 3.73131,1.63954 4.37646,4.10694 0.40525,1.54987 -0.66569,0.35029 -0.66569,0.35029 0,0 -0.94421,-2.73601 -2.5463,-3.35008 -1.45546,-0.55787 -2.1153,-0.76281 -1.16447,-1.10715 z"
       id="path3-0-4"
       sodipodi:nodetypes="cscsc" /><path
       style="fill:#4d4d4d;fill-opacity:1;stroke:none;stroke-width:2.65542;stroke-dasharray:none;stroke-opacity:1"
       d="m 148.05552,135.45566 c -1.77435,-1.42742 -2.5659,-3.16654 -2.00922,-5.65539 0.34968,-1.56335 0.75221,-0.007 0.75221,-0.007 0,0 -0.41388,2.86459 0.72899,4.1443 1.03828,1.16257 1.53096,1.64698 0.52802,1.51755 z"
       id="path3-9-3-7"
       sodipodi:nodetypes="cscsc" /><path
       style="fill:#4d4d4d;fill-opacity:1;stroke:none;stroke-width:3.08984;stroke-dasharray:none;stroke-opacity:1"
       d="m 126.14585,156.02878 c 1.35949,-2.21798 3.18256,-3.24424 5.99708,-2.64651 1.7679,0.37546 0.0986,0.91981 0.0986,0.91981 0,0 -3.21184,-0.41048 -4.48513,1.03014 -1.15675,1.30881 -1.63143,1.92758 -1.61059,0.69654 z"
       id="path3-4-3-9"
       sodipodi:nodetypes="cscsc" /><path
       style="fill:#4d4d4d;fill-opacity:1;stroke:none;stroke-width:3.08984;stroke-dasharray:none;stroke-opacity:1"
       d="m 140.72256,142.73038 c 0.47454,-2.55783 1.80887,-4.16915 4.65069,-4.61954 1.78505,-0.2829 0.42165,0.82341 0.42165,0.82341 0,0 -3.14568,0.76755 -3.81826,2.56876 -0.61101,1.63637 -0.83247,2.38414 -1.2541,1.22736 z"
       id="path3-4-4-3-3"
       sodipodi:nodetypes="cscsc" /><path
       style="fill:#4d4d4d;fill-opacity:1;stroke:none;stroke-width:4.062;stroke-dasharray:none;stroke-opacity:1"
       d="m 135.35994,152.12816 c 1.28101,-3.42979 3.25363,-5.13842 6.58448,-4.53814 2.09223,0.37707 0.23431,1.35486 0.23431,1.35486 0,0 -3.76553,-0.28187 -5.04859,1.98558 -1.16562,2.06003 -1.63326,3.0266 -1.77021,1.19769 z"
       id="path3-4-9-7-9"
       sodipodi:nodetypes="cscsc" /><rect
       style="fill:#1a1a1a;fill-opacity:1;stroke:#ffffff;stroke-width:4.05311;stroke-linecap:round;stroke-linejoin:round;stroke-dasharray:none;stroke-opacity:1;paint-order:stroke fill markers"
       id="rect6"
       width="5.4019947"
       height="101.27348"
       x="251.9567"
       y="70.851646" /><path
       style="fill:#1a1a1a;fill-opacity:1;stroke:none;stroke-width:3.89721;stroke-dasharray:none;stroke-opacity:1"
       d="M 250.30333,70.851645 V 101.23902 L 209.27775,86.100794 Z"
       id="path7"
       sodipodi:nodetypes="cccc" /></g></svg>
